# xmcd
#
# Track frame offsets:
#	150
#	10817
#	23097
#	33449
#	45660
#	59487
#	71646
#	84747
#	97634
#	111180
#	124825
#	137332
#	149914
#	161767
#	174380
#	186940
#	200262
#	214130
#	225978
#	242308
#	252388
#	266362
#	276290
#	287551
#	299716
#	312478
#	324064
#
# Disc length: 4437 seconds
#
# Revision: 0
# Processed by: cddbd v1.5.2PL0 Copyright (c) Steve Scherf et al.
# Submitted via: audiograbber 1.83.01
#
DISCID=8811531b
DTITLE=Various Artist - The History Of Rhythm And Blues 1952-1957 [CD4]
DYEAR=2010
DGENRE=Blues
TTITLE0=Ray Charles - Blackjack
TTITLE1=Otis Blackwell - Daddy Rollin' Stone
TTITLE2=Little Willie John - Need Your Love So Bad
TTITLE3=Etta James - W-O-M-A-N
TTITLE4=Nappy Brown - Is It Really You
TTITLE5=Big Maybelle - Candy
TTITLE6=Lula Reed - I'll Drown In My Tears
TTITLE7=Mercy Dee Walton - One Room Country Shack
TTITLE8=Jimmy Coe - After Hour Joint
TTITLE9=Jimmy Forrest - Night Train
TTITLE10=Little Esther - Aged And Mellow
TTITLE11=Johnnie Ray - Whiskey And Gin
TTITLE12=Guitar Slim - Feelin' Sad
TTITLE13=The Original Five Blind Boys Of Alabama - Oh Lord Stand By Me
TTITLE14=Southern Tones - It Must Be Jesus
TTITLE15=Ray Charles - I've Got A Woman
TTITLE16=Alex Bradford - Too Close To Heaven
TTITLE17=The Soul Stirrers - It Won't Be Very Long
TTITLE18=Mahalia Jackson - Consider Me
TTITLE19=Solomon Burke - I'm All Alone
TTITLE20=LaVern Baker - Soul On Fire
TTITLE21=Jimmy Scott - Don't Cry Baby
TTITLE22=Johnny Ace - Pledging my love
TTITLE23=Little Willie John - Fever
TTITLE24=Lloyd Price - Just Because
TTITLE25=Ray Charles - Hallelujah I Love Her So
TTITLE26=James Brown - Please Please Please
EXTD=
EXTT0=
EXTT1=
EXTT2=
EXTT3=
EXTT4=
EXTT5=
EXTT6=
EXTT7=
EXTT8=
EXTT9=
EXTT10=
EXTT11=
EXTT12=
EXTT13=
EXTT14=
EXTT15=
EXTT16=
EXTT17=
EXTT18=
EXTT19=
EXTT20=
EXTT21=
EXTT22=
EXTT23=
EXTT24=
EXTT25=
EXTT26=
PLAYORDER=
